<?xml version="1.0" encoding="UTF-8" standalone="no"?>
<!-- Created with Inkscape (http://www.inkscape.org/) -->

<svg
   xmlns:dc="http://purl.org/dc/elements/1.1/"
   xmlns:cc="http://creativecommons.org/ns#"
   xmlns:rdf="http://www.w3.org/1999/02/22-rdf-syntax-ns#"
   xmlns:svg="http://www.w3.org/2000/svg"
   xmlns="http://www.w3.org/2000/svg"
   xmlns:sodipodi="http://sodipodi.sourceforge.net/DTD/sodipodi-0.dtd"
   xmlns:inkscape="http://www.inkscape.org/namespaces/inkscape"
   width="283.42963mm"
   height="300mm"
   viewBox="0 0 283.42963 300"
   version="1.1"
   id="svg8"
   inkscape:version="0.92.2 (5c3e80d, 2017-08-06)"
   sodipodi:docname="logo.svg">
  <defs
     id="defs2" />
  <sodipodi:namedview
     id="base"
     pagecolor="#ffffff"
     bordercolor="#666666"
     borderopacity="1.0"
     inkscape:pageopacity="0.0"
     inkscape:pageshadow="2"
     inkscape:zoom="0.175"
     inkscape:cx="-3969.974"
     inkscape:cy="220.07252"
     inkscape:document-units="mm"
     inkscape:current-layer="layer1"
     showgrid="false"
     inkscape:window-width="2560"
     inkscape:window-height="1361"
     inkscape:window-x="-9"
     inkscape:window-y="-9"
     inkscape:window-maximized="1"
     fit-margin-top="0"
     fit-margin-left="0"
     fit-margin-right="0"
     fit-margin-bottom="0" />
  <metadata
     id="metadata5">
    <rdf:RDF>
      <cc:Work
         rdf:about="">
        <dc:format>image/svg+xml</dc:format>
        <dc:type
           rdf:resource="http://purl.org/dc/dcmitype/StillImage" />
        <dc:title></dc:title>
      </cc:Work>
    </rdf:RDF>
  </metadata>
  <g
     inkscape:label="Layer 1"
     inkscape:groupmode="layer"
     id="layer1"
     transform="translate(-43.409579,88.207607)">
    <path
       style="fill:#000000;stroke-width:1.99962831"
       d="M 95.283841,208.05406 C 82.017901,200.93948 80.356378,194.32015 79.519003,145.24901 L 78.776809,101.7571 h 16.061364 16.061337 l 0.6557,37.83042 c 0.36065,20.80675 1.29177,38.46465 2.06919,39.23979 0.77742,0.77515 2.80204,0.87651 4.49916,0.22525 2.6316,-1.00981 3.08569,-6.78442 3.08569,-39.23977 V 101.7571 h 15.99701 15.99705 v 38.05569 c 0,33.04891 0.42116,38.2173 3.20126,39.28411 1.76068,0.67565 3.99649,-0.0273 4.96843,-1.56246 0.97197,-1.53501 1.78098,-19.21287 1.79783,-39.28411 l 0.0306,-36.49323 h 7.99851 7.99854 l -0.006,-22.495848 c -0.006,-18.91914 -0.63923,-23.531985 -3.981,-29.01288 -5.46363,-8.961111 -15.19761,-14.462508 -25.60538,-14.471568 -12.49114,-0.01095 -19.53508,4.524996 -26.67568,17.177433 l -6.24522,11.06595 -3.42224,-7.643805 C 111.38067,52.172317 106.51868,45.815887 102.45849,42.250987 85.363805,27.241654 58.156346,38.683105 55.375891,62.050477 c -0.255018,2.1432 -5.958615,3.661935 -9.151323,2.43678 C 39.260102,61.814737 45.930071,27.902773 58.425053,2.4567382 73.007851,-27.241068 97.026702,-50.27302 127.93498,-64.197081 c 12.539,-5.648775 36.99346,-12.012756 46.16066,-12.012756 4.33829,0 5.10425,-0.900198 5.10425,-5.998884 0,-5.332343 0.66654,-5.998886 5.99886,-5.998886 5.27911,0 5.99889,0.692144 5.99889,5.768483 0,5.523734 0.48783,5.829108 11.49786,7.19745 29.8963,3.715551 58.81344,17.711289 80.62992,39.024401 15.61407,15.253807 25.74322,30.4061551 33.74968,50.486646 6.46901,16.224527 11.92004,46.472219 8.9162,49.476059 -3.49289,3.49287 -10.5309,-0.12675 -11.84055,-6.08964 -2.70482,-12.31491 -14.92187,-21.88646 -27.93569,-21.88646 -12.73587,0 -20.24535,4.667106 -27.12574,16.85846 l -6.29001,11.1453 -4.94669,-9.926685 c -6.06195,-12.163605 -14.8683,-18.079853 -26.89716,-18.069603 -10.58083,0.0089 -20.26926,5.449728 -25.76994,14.471568 -3.34176,5.480895 -3.97468,10.09374 -3.98098,29.01288 -0.005,13.66911 0.77713,22.495848 1.99216,22.495848 2.92602,0 2.61939,78.45232 -0.34527,88.34757 -6.29551,21.01249 -33.84898,28.46902 -49.317,13.34619 l -6.38056,-6.23817 -4.89585,5.28271 c -9.11076,9.83067 -24.65129,12.16709 -36.973363,5.55866 z M 229.00379,205.0826 c -27.57911,-14.56549 -27.46773,-57.38104 0.18538,-71.27388 17.80463,-8.94498 35.7675,-6.38751 49.1532,6.99819 6.39431,6.39428 8.91723,10.86518 10.62509,18.82859 1.23181,5.74374 1.73001,11.26782 1.10709,12.2757 -0.62289,1.00788 -10.90263,1.8325 -22.84382,1.8325 -22.86576,0 -24.15097,-0.53937 -22.45282,-9.42276 0.70594,-3.69273 2.17876,-4.57462 7.64011,-4.57462 7.14813,0 9.54078,-4.50606 3.60258,-6.78476 -10.34083,-3.96816 -17.49984,2.54456 -17.49984,15.91998 0,12.49175 5.94033,18.7652 14.65422,15.47606 5.71941,-2.15882 6.36362,-1.83602 13.87614,6.95287 4.33305,5.06924 7.37505,10.03106 6.75995,11.02626 -2.29904,3.71994 -14.85488,7.40028 -25.2467,7.40028 -7.39473,0 -13.49704,-1.45203 -19.5606,-4.65441 z"
       id="path828"
       inkscape:connector-curvature="0" />
  </g>
</svg>
