<?xml version="1.0" encoding="UTF-8" standalone="no"?>
<!-- Created with Inkscape (http://www.inkscape.org/) -->

<svg
   xmlns:dc="http://purl.org/dc/elements/1.1/"
   xmlns:cc="http://creativecommons.org/ns#"
   xmlns:rdf="http://www.w3.org/1999/02/22-rdf-syntax-ns#"
   xmlns:svg="http://www.w3.org/2000/svg"
   xmlns="http://www.w3.org/2000/svg"
   xmlns:sodipodi="http://sodipodi.sourceforge.net/DTD/sodipodi-0.dtd"
   xmlns:inkscape="http://www.inkscape.org/namespaces/inkscape"
   width="127.70747mm"
   height="135.39854mm"
   viewBox="0 0 127.70747 135.39854"
   version="1.1"
   id="svg8"
   inkscape:version="0.92.2 (5c3e80d, 2017-08-06)"
   sodipodi:docname="logo2.svg">
  <defs
     id="defs2" />
  <sodipodi:namedview
     id="base"
     pagecolor="#ffffff"
     bordercolor="#666666"
     borderopacity="1.0"
     inkscape:pageopacity="0.0"
     inkscape:pageshadow="2"
     inkscape:zoom="0.24748737"
     inkscape:cx="1070.3939"
     inkscape:cy="655.98929"
     inkscape:document-units="mm"
     inkscape:current-layer="layer1"
     showgrid="false"
     inkscape:pagecheckerboard="false"
     fit-margin-top="0"
     fit-margin-left="0"
     fit-margin-right="0"
     fit-margin-bottom="0"
     inkscape:window-width="2560"
     inkscape:window-height="1361"
     inkscape:window-x="2551"
     inkscape:window-y="-9"
     inkscape:window-maximized="1" />
  <metadata
     id="metadata5">
    <rdf:RDF>
      <cc:Work
         rdf:about="">
        <dc:format>image/svg+xml</dc:format>
        <dc:type
           rdf:resource="http://purl.org/dc/dcmitype/StillImage" />
        <dc:title></dc:title>
      </cc:Work>
    </rdf:RDF>
  </metadata>
  <g
     inkscape:label="Layer 1"
     inkscape:groupmode="layer"
     id="layer1"
     transform="translate(-48.580173,-66.616873)">
    <flowRoot
       xml:space="preserve"
       id="flowRoot4506"
       style="font-style:normal;font-weight:normal;font-size:40px;line-height:1.25;font-family:sans-serif;letter-spacing:0px;word-spacing:0px;fill:#000000;fill-opacity:1;stroke:none"
       transform="scale(0.26458333)"><flowRegion
         id="flowRegion4508"><rect
           id="rect4510"
           width="357.14285"
           height="274.28571"
           x="237.14285"
           y="479.66254" /></flowRegion><flowPara
         id="flowPara4512"></flowPara></flowRoot>    <g
       id="g4574">
      <g
         id="g4565">
        <g
           id="g4524"
           transform="matrix(2.6595745,0,0,2.6595745,43.572758,23.936014)"
           style="fill:#000000">
          <path
             style="fill:#000000"
             d="m 26.918123,18.042156 c -0.200931,-0.584984 0.438777,-2.010607 -0.387957,-1.969787 -0.70705,0.08894 -1.981428,-0.389457 -1.612043,0.775914 0.554637,1.815625 -1.537001,1.092005 -2.658878,1.442218 C 12.702241,19.620714 4.465794,27.295729 2.4453272,36.727719 2.1299377,38.416835 1.6758807,40.497342 1.9872,42.015301 c 1.2103612,0.05621 2.4080658,0.256286 2.0958578,-1.486057 0.9220622,-3.46849 5.8414044,-4.729808 8.2773262,-2.075176 1.050328,0.975771 1.409368,2.391757 1.987487,3.65126 0.836818,-1.981283 1.737888,-4.308839 4.07314,-4.878926 3.110236,-1.086317 6.522897,1.678474 6.49711,4.788899 0,5.669088 0,11.338175 0,17.007263 1.410156,1.061082 2.387303,-0.08427 2,-1.480129 0,-5.373914 0,-10.747827 0,-16.121741 0.260331,-3.444663 4.538456,-5.574087 7.443254,-3.74102 1.699208,0.902971 2.290549,2.776976 2.986494,4.425651 0.836817,-1.981284 1.737892,-4.308836 4.073142,-4.878923 3.049795,-1.039188 6.562284,1.561204 6.43687,4.788901 0.692381,-0.203632 2.360397,0.550878 1.989884,-0.699856 C 49.694069,31.883942 43.363141,22.975505 34.551124,19.647801 32.117958,18.697753 29.527552,18.154859 26.918123,18.042156 Z"
             id="path4522"
             inkscape:connector-curvature="0" />
        </g>
        <flowRoot
           xml:space="preserve"
           id="flowRoot4548"
           style="font-style:normal;font-variant:normal;font-weight:normal;font-stretch:normal;font-size:133.3318634px;line-height:1.25;font-family:'Bauhaus 93';-inkscape-font-specification:'Bauhaus 93, Normal';font-variant-ligatures:normal;font-variant-caps:normal;font-variant-numeric:normal;font-feature-settings:normal;text-align:start;letter-spacing:0px;word-spacing:0px;writing-mode:lr-tb;text-anchor:start;fill:#000000;fill-opacity:1;stroke:none"
           transform="matrix(0.54896357,0,0,0.54896357,-74.087334,-144.9903)"><flowRegion
             id="flowRegion4550"
             style="font-style:normal;font-variant:normal;font-weight:normal;font-stretch:normal;font-size:133.3318634px;font-family:'Bauhaus 93';-inkscape-font-specification:'Bauhaus 93, Normal';font-variant-ligatures:normal;font-variant-caps:normal;font-variant-numeric:normal;font-feature-settings:normal;text-align:start;writing-mode:lr-tb;text-anchor:start"><rect
               id="rect4552"
               width="290.92392"
               height="183.84776"
               x="246.47722"
               y="507.33679"
               style="font-style:normal;font-variant:normal;font-weight:normal;font-stretch:normal;font-size:133.3318634px;font-family:'Bauhaus 93';-inkscape-font-specification:'Bauhaus 93, Normal';font-variant-ligatures:normal;font-variant-caps:normal;font-variant-numeric:normal;font-feature-settings:normal;text-align:start;writing-mode:lr-tb;text-anchor:start" /></flowRegion><flowPara
             id="flowPara4557">We</flowPara></flowRoot>      </g>
    </g>
  </g>
</svg>
